<svg width="260" height="72" viewBox="0 0 260 72" fill="none" xmlns="http://www.w3.org/2000/svg">
  <rect x="4" y="8" width="56" height="56" rx="16" fill="#000000"/>
  <path d="M20 23H36.5C42.299 23 47 27.701 47 33.5C47 38.127 43.99 42.045 39.795 43.393C43.196 44.616 45.625 47.864 45.625 51.68C45.625 57.377 40.987 62 35.281 62H20V23ZM34.53 28.6H26.3V40.11H34.53C37.71 40.11 40.29 37.53 40.29 34.35C40.29 31.18 37.71 28.6 34.53 28.6ZM35.14 45.43H26.3V56.4H35.14C38.17 56.4 40.63 53.94 40.63 50.91C40.63 47.89 38.17 45.43 35.14 45.43Z" fill="white"/>
  <text x="74" y="46" fill="#000000" font-family="Encode Sans Expanded, Arial, sans-serif" font-size="30" font-weight="700" letter-spacing="1.4">BAZARLO</text>
</svg>
