<svg width="180" height="48" viewBox="0 0 180 48" fill="none" xmlns="http://www.w3.org/2000/svg">
  <rect x="2" y="4" width="40" height="40" rx="12" fill="#000000"/>
  <path d="M13 14H25C29.418 14 33 17.582 33 22C33 25.518 30.711 28.497 27.522 29.521C30.107 30.451 31.951 32.92 31.951 35.822C31.951 40.151 28.427 43.664 24.089 43.664H13V14ZM23.842 18.258H17.8V26.702H23.842C26.175 26.702 28.067 24.811 28.067 22.478C28.067 20.149 26.175 18.258 23.842 18.258ZM24.289 30.605H17.8V38.652H24.289C26.513 38.652 28.316 36.849 28.316 34.625C28.316 32.408 26.513 30.605 24.289 30.605Z" fill="white"/>
  <text x="52" y="31" fill="#000000" font-family="Encode Sans Expanded, Arial, sans-serif" font-size="20" font-weight="700" letter-spacing="0.8">BAZARLO</text>
</svg>
